# AST/ASF file generated using VICON BodyLanguage
# -----------------------------------------------
:version 1.10
:name VICON
:units
  mass 1.0
  length 0.45
  angle deg
:documentation
   .ast/.asf automatically generated from VICON data using
   VICON BodyBuilder and BodyLanguage model FoxedUp or BRILLIANT.MOD
:root
   order TX TY TZ RX RY RZ
   axis XYZ
   position 0 0 0  
   orientation 0 0 0 
:bonedata
  begin
     id 1 
     name lhipjoint
     direction 0.693937 -0.600361 0.397515 
     length 2.37164 
     axis 0 0 0  XYZ
  end
  begin
     id 2 
     name lfemur
     direction 0.34202 -0.939693 0  
     length 6.18497  
     axis 0 0 20  XYZ
    dof rx ry rz
    limits (-160.0 20.0)
           (-70.0 70.0)
           (-60.0 70.0)
  end
  begin
     id 3 
     name ltibia
     direction 0.34202 -0.939693 0   
     length 6.91601   
     axis 0 0 20   XYZ
    dof rx
    limits (-10.0 170.0)
  end
  begin
     id 4 
     name lfoot
     direction 0.0978718 -0.2689 0.958182   
     length 1.81453   
     axis -90 7.62852e-016 20   XYZ
    dof rx rz
    limits (-45.0 90.0)
           (-70.0 20.0)
  end
  begin
     id 5 
     name ltoes
     direction 1.53569e-011 -4.21951e-011 1   
     length 0.912052   
     axis -90 7.62852e-016 20   XYZ
    dof rx
    limits (-90.0 20.0)
  end
  begin
     id 6 
     name rhipjoint
     direction -0.643996 -0.637876 0.422354   
     length 2.23216  
     axis 0 0 0  XYZ 
  end
  begin
     id 7 
     name rfemur
     direction -0.34202 -0.939693 0   
     length 6.15404   
     axis 0 0 -20   XYZ
    dof rx ry rz
    limits (-160.0 20.0)
           (-70.0 70.0)
           (-70.0 60.0)
  end
  begin
     id 8 
     name rtibia
     direction -0.34202 -0.939693 0   
     length 6.86744   
     axis 0 0 -20   XYZ
    dof rx
    limits (-10.0 170.0)
 end
 begin
     id 9 
     name rfoot
     direction -0.118701 -0.326127 0.937844   
     length 1.9243  
     axis -90 -7.62852e-016 -20   XYZ
    dof rx rz
    limits (-45.0 90.0)
           (-20.0 70.0)
  end
  begin
     id 10 
     name rtoes
     direction -1.5356e-011 -4.2181e-011 1   
     length 0.958865   
     axis -90 -7.62852e-016 -20   XYZ
    dof rx
    limits (-90.0 20.0)
  end
  begin
     id 11 
     name lowerback
     direction 0.0310826 0.968686 -0.246334   
     length 2.00021   
     axis 0 0 0   XYZ
    dof rx ry rz
    limits (-20.0 45.0)
           (-30.0 30.0)
           (-30.0 30.0)
  end
  begin
     id 12 
     name upperback
     direction -0.0152834 0.999474 -0.0286152   
     length 2.03728   
     axis 0 0 0   XYZ
    dof rx ry rz
    limits (-20.0 45.0)
           (-30.0 30.0)
           (-30.0 30.0)
  end
  begin
     id 13 
     name thorax
     direction -0.0323701 0.996236 0.0804149   
     length 2.16   
     axis 0 0 0   XYZ
    dof rx ry rz
    limits (-20.0 45.0)
           (-30.0 30.0)
           (-30.0 30.0)
  end
  begin
     id 14 
     name lowerneck
     direction 0.0307935 0.982251 0.185027   
     length 1.43558   
     axis 0 0 0   XYZ
    dof rx ry rz
    limits (-20.0 45.0)
           (-30.0 30.0)
           (-30.0 30.0)
  end
  begin
     id 15 
     name upperneck
     direction -0.0927153 0.994775 0.0427454   
     length 1.44603   
     axis 0 0 0   XYZ
    dof rx ry rz
    limits (-20.0 45.0)
           (-30.0 30.0)
           (-30.0 30.0)
  end
  begin
     id 16
     name head
     direction -0.0341265 0.999406 -0.00472033  
     length 1.45931  
     axis 0 0 0   XYZ
    dof rx ry rz
    limits (-20.0 45.0)
           (-30.0 30.0)
           (-30.0 30.0)
  end
  begin
     id 17 
     name lclavicle
     direction 0.820755 0.555306 -0.134151  
     length 2.66075  
     axis 0 0 0   XYZ
    dof ry rz
    limits (-20.0 10.0)
           (0.0 20.0)
  end
  begin
     id 18 
     name lhumerus
     direction 1 -4.48971e-011 5.24853e-027   
     length 5.0546   
     axis -180 -30 -90   XYZ
    dof rx ry rz
    limits (-60.0 90.0)
           (-90.0 90.0)
           (-90.0 90.0)
  end
  begin
     id 19
     name lradius
     direction 1 -4.48971e-011 2.76575e-028   
     length 3.39013   
     axis -180 -30 -90   XYZ
    dof rx
    limits (-10.0 170.0)
  end
  begin
     id 20
     name lwrist
     direction 1 -4.48939e-011 -2.27826e-027   
     length 1.69507   
     axis 2.17013e-015 90 90   XYZ
    dof ry
    limits (-180.0 0.0)
 end
  begin
     id 21 
     name lhand
     direction 1 -4.49009e-011 -4.55652e-027   
     length 0.572425   
     axis 2.90745e-015 90 90   XYZ
    dof rx rz
    limits (-90.0 90.0)
           (-45.0 45.0)
  end
  begin
     id 22 
     name lfingers
     direction 1 -4.48955e-011 -9.11303e-027   
     length 0.461504   
     axis 5.81489e-015 90 90   XYZ
    dof rx
    limits (0.0 90.0)
  end
  begin
     id 23
     name lthumb
     direction 0.707107 -6.34929e-011 0.707107   
     length 0.66263   
     axis -90 45 2.85299e-015   XYZ
    dof rx rz
    limits (-45.0 45.0)
           (-45.0 45.0)
  end
  begin
     id 24 
     name rclavicle
     direction -0.754477 0.632921 -0.173712   
     length 2.73081  
     axis 0 0 0   XYZ 
    dof ry rz
    limits (-10.0 20.0)
           (-20.0 0.0)
  end
  begin
     id 25 
     name rhumerus
     direction -1 -4.48969e-011 5.1496e-027  
     length 5.0701   
     axis -180 30 90   XYZ
    dof rx ry rz
    limits (-90.0 60.0)
           (-90.0 90.0)
           (-90.0 90.0)
  end
  begin
     id 26 
     name rradius
     direction -1 -4.48967e-011 -7.15624e-028   
     length 3.14957   
     axis -180 30 90   XYZ
    dof rx
    limits (-10.0 170.0)
  end
  begin
     id 27 
     name rwrist
     direction -1 -4.48938e-011 -2.27826e-027   
     length 1.57479   
     axis 2.17013e-015 -90 -90   XYZ
    dof ry
    limits (-180.0 0.0)
  end
  begin
     id 28
     name rhand
     direction -1 -4.49008e-011 -4.55652e-027   
     length 0.718191   
     axis 2.90745e-015 -90 -90   XYZ
    dof rx rz
    limits (-90.0 90.0)
           (-45.0 45.0)
  end
  begin
     id 29
     name rfingers
     direction -1 -4.48953e-011 -9.11303e-027   
     length 0.579024   
     axis 5.81489e-015 -90 -90   XYZ
    dof rx
    limits (0.0 90.0)
  end
  begin
     id 30
     name rthumb
     direction -0.707107 -6.34937e-011 0.707107   
     length 0.831366   
     axis -90 -45 -2.85299e-015   XYZ
    dof rx rz
    limits (-45.0 45.0)
           (-45.0 45.0)
  end
:hierarchy
  begin
    root lhipjoint rhipjoint lowerback
    lhipjoint lfemur
    lfemur ltibia
    ltibia lfoot
    lfoot ltoes
    rhipjoint rfemur
    rfemur rtibia
    rtibia rfoot
    rfoot rtoes
    lowerback upperback
    upperback thorax
    thorax lowerneck lclavicle rclavicle
    lowerneck upperneck
    upperneck head
    lclavicle lhumerus
    lhumerus lradius
    lradius lwrist
    lwrist lhand lthumb
    lhand lfingers
    rclavicle rhumerus
    rhumerus rradius
    rradius rwrist
    rwrist rhand rthumb
    rhand rfingers
  end

#!OML:ASF H:\Male1\Project 1\Capture day 1\Session 1\Male1.ASF
:FULLY-SPECIFIED
:DEGREES
111
root 8.10069 17.1507 0.766643 178.573 5.19457 -180.487
lowerback 7.79088 0.199674 0.322985
upperback 3.40697 0.524213 -1.24116
thorax -0.835232 0.381181 -1.50439
lowerneck -3.91176 7.27261 9.81338
upperneck -0.161806 9.38815 -7.01613
head 1.52242 4.64654 -3.73771
rclavicle -1.18774e-014 3.97569e-016
rhumerus -39.0635 9.17615 -89.1602
rradius 42.2834
rwrist -26.4038
rhand -25.3195 -2.65316
rfingers 7.12502
rthumb 1.203 -32.6295
lclavicle -1.18774e-014 3.97569e-016
lhumerus -40.7613 -7.06178 83.6213
lradius 57.9407
lwrist 25.0436
lhand -30.0046 18.0256
lfingers 7.12502
lthumb -3.32185 47.9795
rfemur -5.53856 10.9694 20.568
rtibia 27.43
rfoot -1.71277 -25.5109
rtoes -26.929
lfemur -3.85103 -9.84107 -21.0618
ltibia 27.42
lfoot -8.2544 20.4412
ltoes -7.34651
112
root 8.10542 17.2625 0.739344 178.555 5.0995 -180.476
lowerback 7.68937 0.139957 0.347831
upperback 3.40852 0.444661 -1.23321
thorax -0.779753 0.340923 -1.50254
lowerneck -3.77875 7.24326 9.74646
upperneck -0.340152 9.36035 -7.00308
head 1.43223 4.6344 -3.72963
rclavicle 2.93207e-015 -9.14409e-015
rhumerus -38.8992 8.75668 -89.0113
rradius 41.8668
rwrist -25.954
rhand -24.7137 -2.517
rfingers 7.12502
rthumb 1.78812 -32.4893
lclavicle 2.93207e-015 -9.14409e-015
lhumerus -40.7194 -6.79451 83.7753
lradius 57.3386
lwrist 24.358
lhand -29.7472 17.2399
lfingers 7.12502
lthumb -3.07329 47.1975
rfemur -5.48704 10.8676 20.5256
rtibia 27.5589
rfoot -3.07511 -26.2354
rtoes -25.85
lfemur -3.59135 -10.4932 -21.1838
ltibia 27.0276
lfoot -8.96286 20.6021
ltoes -6.84192
113
root 8.11011 17.3272 0.717656 178.531 4.97689 -180.431
lowerback 7.65995 0.0899401 0.419197
upperback 3.43049 0.384484 -1.22068
thorax -0.742279 0.312135 -1.52445
lowerneck -3.75703 7.19429 9.62111
upperneck -0.505467 9.29914 -6.9373
head 1.35683 4.60484 -3.68972
rclavicle -3.03147e-015 -1.19271e-014
rhumerus -38.7875 8.39567 -88.8986
rradius 41.7427
rwrist -25.7699
rhand -24.3669 -2.36094
rfingers 7.12502
rthumb 2.12303 -32.3301
lclavicle -3.03147e-015 -1.19271e-014
lhumerus -40.4599 -6.72283 83.9678
lradius 56.5876
lwrist 23.5524
lhand -29.3139 16.4882
lfingers 7.12502
lthumb -2.65486 46.4514
rfemur -5.56207 10.618 20.5487
rtibia 27.9194
rfoot -3.7756 -26.3296
rtoes -25.7014
lfemur -3.4655 -11.1222 -21.271
ltibia 26.9327
lfoot -9.07366 20.1085
ltoes -7.38038
114
root 8.11487 17.3423 0.700009 178.461 4.85261 -180.36
lowerback 7.71816 0.0465643 0.500997
upperback 3.48717 0.339053 -1.1955
thorax -0.717109 0.292955 -1.541
lowerneck -3.79967 7.14191 9.49672
upperneck -0.687082 9.22897 -6.88849
head 1.28823 4.57031 -3.65424
rclavicle -6.85807e-015 -7.15625e-015
rhumerus -38.7301 8.19063 -88.8385
rradius 41.897
rwrist -25.8578
rhand -24.3016 -2.21507
rfingers 7.12502
rthumb 2.18606 -32.1836
lclavicle -6.85807e-015 -7.15625e-015
lhumerus -40.0077 -6.79231 84.1881
lradius 55.7365
lwrist 22.6624
lhand -28.8139 15.816
lfingers 7.12502
lthumb -2.17193 45.7847
rfemur -5.69396 10.3319 20.6308
rtibia 28.3922
rfoot -3.61828 -25.7082
rtoes -26.7486
lfemur -3.39563 -11.7179 -21.3455
ltibia 27.078
lfoot -8.9209 19.1395
ltoes -8.46184
115
root 8.12021 17.3083 0.684844 178.368 4.74796 -180.263
lowerback 7.82782 0.0107478 0.57448
upperback 3.57103 0.307162 -1.15365
thorax -0.692093 0.282046 -1.53704
lowerneck -3.8913 7.09982 9.42453
upperneck -0.856014 9.16842 -6.9013
head 1.24041 4.53993 -3.6474
rclavicle -2.38542e-015 3.77691e-015
rhumerus -38.7262 8.15765 -88.8189
rradius 42.2953
rwrist -26.1228
rhand -24.3997 -2.06957
rfingers 7.12502
rthumb 2.09138 -32.0391
lclavicle -2.38542e-015 3.77691e-015
lhumerus -39.4162 -6.98767 84.4314
lradius 54.8398
lwrist 21.7496
lhand -28.3768 15.2601
lfingers 7.12502
lthumb -1.74979 45.2326
rfemur -5.86869 10.1151 20.7734
rtibia 28.8866
rfoot -2.98488 -24.5144
rtoes -28.4972
lfemur -3.3636 -12.2256 -21.3941
ltibia 27.3742
lfoot -8.74704 17.9896
ltoes -9.65028
116
root 8.12696 17.2263 0.671133 178.271 4.67002 -180.151
lowerback 7.96239 -0.0208745 0.605955
upperback 3.66985 0.280431 -1.09374
thorax -0.665482 0.274163 -1.49131
lowerneck -3.93776 7.06445 9.4265
upperneck -1.09842 9.11884 -7.01863
head 1.17197 4.51535 -3.69295
rclavicle 1.14301e-015 -8.94531e-015
rhumerus -38.7616 8.3144 -88.833
rradius 42.8921
rwrist -26.5004
rhand -24.531 -1.911
rfingers 7.12502
rthumb 1.96455 -31.8817
lclavicle 1.14301e-015 -8.94531e-015
lhumerus -38.7524 -7.29722 84.6988
lradius 53.9697
lwrist 20.8615
lhand -28.0881 14.8613
lfingers 7.12502
lthumb -1.47102 44.836
rfemur -6.07885 10.0558 20.9754
rtibia 29.3613
rfoot -2.3771 -23.0674
rtoes -30.1532
lfemur -3.35878 -12.6076 -21.4092
ltibia 27.7223
lfoot -8.54667 16.9112
ltoes -10.491
117
root 8.13607 17.0978 0.657972 178.19 4.62435 -180.052
lowerback 8.10066 -0.0452861 0.561836
upperback 3.76715 0.25835 -1.02899
thorax -0.642533 0.267881 -1.39844
lowerneck -3.96641 7.04401 9.48287
upperneck -1.33965 9.08906 -7.1835
head 1.10835 4.50084 -3.76503
rclavicle -3.37934e-015 9.54166e-015
rhumerus -38.8376 8.66018 -88.887
rradius 43.6489
rwrist -26.9303
rhand -24.5785 -1.73619
rfingers 7.12502
rthumb 1.91868 -31.7073
lclavicle -3.37934e-015 9.54166e-015
lhumerus -38.0883 -7.73955 84.9836
lradius 53.2012
lwrist 20.0296
lhand -27.9508 14.6394
lfingers 7.12502
lthumb -1.33837 44.6149
rfemur -6.3355 10.1376 21.2081
rtibia 29.8304
rfoot -2.09257 -21.7852
rtoes -31.3969
lfemur -3.38849 -12.842 -21.401
ltibia 28.0571
lfoot -8.15784 16.0735
ltoes -11.2634
118
root 8.14799 16.9241 0.645394 178.138 4.60271 -179.968
lowerback 8.24018 -0.0634247 0.443475
upperback 3.84569 0.237541 -0.966848
thorax -0.639615 0.260576 -1.26665
lowerneck -3.97318 7.03493 9.5683
upperneck -1.56856 9.07505 -7.36524
head 1.04883 4.49446 -3.84858
rclavicle 9.19379e-015 -4.17448e-015
rhumerus -38.9488 9.15477 -88.9737
rradius 44.5169
rwrist -27.3247
rhand -24.4753 -1.54261
rfingers 7.12502
rthumb 2.01834 -31.5128
lclavicle 9.19379e-015 -4.17448e-015
lhumerus -37.5036 -8.3257 85.2728
lradius 52.6108
lwrist 19.2613
lhand -27.871 14.5816
lfingers 7.12502
lthumb -1.26136 44.5576
rfemur -6.66899 10.2295 21.4553
rtibia 30.3793
rfoot -2.41178 -20.8948
rtoes -31.3399
lfemur -3.47853 -12.9006 -21.354
ltibia 28.356
lfoot -7.61347 15.5265
ltoes -11.982
119
root 8.16265 16.7058 0.635897 178.124 4.58634 -179.889
lowerback 8.39895 -0.0854192 0.273409
upperback 3.88875 0.20422 -0.910042
thorax -0.684061 0.24484 -1.11043
lowerneck -3.94853 7.04016 9.62909
upperneck -1.78338 9.08262 -7.49496
head 0.985737 4.49952 -3.90949
rclavicle 5.86415e-015 4.57205e-015
rhumerus -39.0949 9.76685 -89.0901
rradius 45.4613
rwrist -27.6088
rhand -24.2229 -1.35126
rfingers 7.12502
rthumb 2.26207 -31.319
lclavicle 5.86415e-015 4.57205e-015
lhumerus -37.0565 -9.03983 85.5472
lradius 52.2487
lwrist 18.5415
lhand -27.7484 14.6232
lfingers 7.12502
lthumb -1.14294 44.5999
rfemur -7.11398 10.1914 21.7072
rtibia 31.1173
rfoot -3.58948 -20.4201
rtoes -29.7656
lfemur -3.58204 -12.6661 -21.2551
ltibia 28.6562
lfoot -7.31987 15.1156
ltoes -13.4193
